<svg version="1.1" viewBox="0.0 0.0 191.17060367454067 115.13123359580052" fill="none" stroke="none" stroke-linecap="square" stroke-miterlimit="10" xmlns:xlink="http://www.w3.org/1999/xlink" xmlns="http://www.w3.org/2000/svg"><clipPath id="p.0"><path d="m0 0l191.17061 0l0 115.13123l-191.17061 0l0 -115.13123z" clip-rule="nonzero"/></clipPath><g clip-path="url(#p.0)"><path fill="#000000" fill-opacity="0.0" d="m0 0l191.17061 0l0 115.13123l-191.17061 0z" fill-rule="evenodd"/><path fill="#ffffff" d="m2.612861 26.872349l0 0c0 -13.486932 10.933318 -24.42025 24.420248 -24.42025l136.7028 0c6.476654 0 12.688049 2.5728402 17.26773 7.152525c4.5796814 4.579685 7.152527 10.79107 7.152527 17.267723l0 61.26974c0 13.486931 -10.933319 24.420242 -24.420258 24.420242l-136.7028 0l0 0c-13.486931 0 -24.420248 -10.933311 -24.420248 -24.420242z" fill-rule="evenodd"/><path stroke="#000000" stroke-width="4.0" stroke-linejoin="round" stroke-linecap="butt" d="m2.612861 26.872349l0 0c0 -13.486932 10.933318 -24.42025 24.420248 -24.42025l136.7028 0c6.476654 0 12.688049 2.5728402 17.26773 7.152525c4.5796814 4.579685 7.152527 10.79107 7.152527 17.267723l0 61.26974c0 13.486931 -10.933319 24.420242 -24.420258 24.420242l-136.7028 0l0 0c-13.486931 0 -24.420248 -10.933311 -24.420248 -24.420242z" fill-rule="evenodd"/><path fill="#000000" fill-opacity="0.0" d="m18.826115 16.678106l0 0c0 -7.8568068 6.3692017 -14.2260065 14.226006 -14.2260065l125.15428 0c3.7729797 0 7.3914185 1.498807 10.059311 4.166701c2.6678925 2.667894 4.1667023 6.2863336 4.1667023 10.059305l0 56.902313c0 7.8568115 -6.3692017 14.226006 -14.226013 14.226006l-125.15428 0c-7.856804 0 -14.226006 -6.369194 -14.226006 -14.226006z" fill-rule="evenodd"/><path stroke="#000000" stroke-width="4.0" stroke-linejoin="round" stroke-linecap="butt" d="m18.826115 16.678106l0 0c0 -7.8568068 6.3692017 -14.2260065 14.226006 -14.2260065l125.15428 0c3.7729797 0 7.3914185 1.498807 10.059311 4.166701c2.6678925 2.667894 4.1667023 6.2863336 4.1667023 10.059305l0 56.902313c0 7.8568115 -6.3692017 14.226006 -14.226013 14.226006l-125.15428 0c-7.856804 0 -14.226006 -6.369194 -14.226006 -14.226006z" fill-rule="evenodd"/><path fill="#000000" fill-opacity="0.0" d="m6.6767607 99.85022c2.9243698 -6.9753723 7.603423 -13.640083 13.691501 -18.776993" fill-rule="evenodd"/><path stroke="#000000" stroke-width="3.0" stroke-linejoin="round" stroke-linecap="butt" d="m6.6767607 99.85022c2.9243698 -6.9753723 7.603423 -13.640083 13.691501 -18.776993" fill-rule="evenodd"/><path fill="#000000" fill-opacity="0.0" d="m15.227642 107.683136c3.8468952 -7.0363235 6.652483 -14.668289 8.769014 -22.403755" fill-rule="evenodd"/><path stroke="#000000" stroke-width="3.0" stroke-linejoin="round" stroke-linecap="butt" d="m15.227642 107.683136c3.8468952 -7.0363235 6.652483 -14.668289 8.769014 -22.403755" fill-rule="evenodd"/><path fill="#000000" fill-opacity="0.0" d="m166.48311 85.69762c3.7603912 6.843292 5.3905945 14.704895 9.827026 21.180405" fill-rule="evenodd"/><path stroke="#000000" stroke-width="3.0" stroke-linejoin="round" stroke-linecap="butt" d="m166.48311 85.69762c3.7603912 6.843292 5.3905945 14.704895 9.827026 21.180405" fill-rule="evenodd"/><path fill="#000000" fill-opacity="0.0" d="m184.61942 99.07398c-4.2523804 -5.9604797 -7.7171326 -12.806061 -13.438309 -17.375328" fill-rule="evenodd"/><path stroke="#000000" stroke-width="3.0" stroke-linejoin="round" stroke-linecap="butt" d="m184.61942 99.07398c-4.2523804 -5.9604797 -7.7171326 -12.806061 -13.438309 -17.375328" fill-rule="evenodd"/><path fill="#000000" fill-opacity="0.0" d="m18.826773 2.1257696l152.34647 0l0 87.27559l-152.34647 0z" fill-rule="evenodd"/><path fill="#000000" d="m82.53906 24.901392l14.953125 39.953125l-9.140625 0l-3.0 -8.890621l-14.953125 0l-3.15625 8.921871l-8.890629 0l15.187504 -39.984375l9.0 0zm-4.65625 9.843752l-5.1875 14.6875l10.359375 0l-5.03125 -14.6875l-0.140625 0zm30.441406 -9.843752l0 39.984375l-7.96875 0l0 -39.984375l7.96875 0zm16.3125 2.359375l0 8.671877l5.828125 0l0 5.328125l-5.828125 0l0 14.515625q0 1.78125 0.671875 2.484375q0.671875 0.6875 2.703125 0.6875q0.671875 0 1.296875 -0.046875q0.640625 -0.0625 1.15625 -0.171875l0 6.218746q-0.984375 0.15625 -2.203125 0.203125q-1.21875 0.0625 -2.390625 0.0625q-5.171875 0 -7.1875 -1.7656212q-2.0 -1.765625 -2.0 -4.9375l0 -17.25l-4.8125 0l0 -5.328125l4.8125 0l0 -8.671877l7.953125 0z" fill-rule="nonzero"/></g></svg>