<svg version="1.1" viewBox="0.0 0.0 191.17060367454067 115.13123359580052" fill="none" stroke="none" stroke-linecap="square" stroke-miterlimit="10" xmlns:xlink="http://www.w3.org/1999/xlink" xmlns="http://www.w3.org/2000/svg"><clipPath id="p.0"><path d="m0 0l191.17061 0l0 115.13123l-191.17061 0l0 -115.13123z" clip-rule="nonzero"/></clipPath><g clip-path="url(#p.0)"><path fill="#000000" fill-opacity="0.0" d="m0 0l191.17061 0l0 115.13123l-191.17061 0z" fill-rule="evenodd"/><path fill="#434343" d="m2.612861 26.872349l0 0c0 -13.486932 10.933318 -24.42025 24.420248 -24.42025l136.7028 0c6.476654 0 12.688049 2.5728402 17.26773 7.152525c4.5796814 4.579685 7.152527 10.79107 7.152527 17.267723l0 61.26974c0 13.486931 -10.933319 24.420242 -24.420258 24.420242l-136.7028 0l0 0c-13.486931 0 -24.420248 -10.933311 -24.420248 -24.420242z" fill-rule="evenodd"/><path stroke="#000000" stroke-width="4.0" stroke-linejoin="round" stroke-linecap="butt" d="m2.612861 26.872349l0 0c0 -13.486932 10.933318 -24.42025 24.420248 -24.42025l136.7028 0c6.476654 0 12.688049 2.5728402 17.26773 7.152525c4.5796814 4.579685 7.152527 10.79107 7.152527 17.267723l0 61.26974c0 13.486931 -10.933319 24.420242 -24.420258 24.420242l-136.7028 0l0 0c-13.486931 0 -24.420248 -10.933311 -24.420248 -24.420242z" fill-rule="evenodd"/><path fill="#000000" fill-opacity="0.0" d="m34.19882 1.0164042l156.50394 0l0 87.27559l-156.50394 0z" fill-rule="evenodd"/><path fill="#ffffff" d="m72.91757 49.042027l7.859375 2.484375q-1.8125 6.5625 -6.015625 9.75q-4.1875 3.1875038 -10.640625 3.1875038q-7.984379 0 -13.125004 -5.453129q-5.140625 -5.46875 -5.140625 -14.921875q0 -10.015625 5.15625 -15.546873q5.171875 -5.53125 13.593754 -5.53125q7.359375 0 11.953125 4.34375q2.734375 2.5625 4.109375 7.374998l-8.015625 1.921875q-0.71875 -3.125 -2.96875 -4.921873q-2.25 -1.8125 -5.484375 -1.8125q-4.453129 0 -7.234379 3.203123q-2.765625 3.203125 -2.765625 10.359375q0 7.609375 2.734375 10.84375q2.734375 3.21875 7.109379 3.21875q3.21875 0 5.546875 -2.046875q2.328125 -2.0625 3.328125 -6.453125zm28.066406 -14.3125l0 6.125l-5.25 0l0 11.703125q0 3.5625 0.140625 4.15625q0.15625 0.578125 0.6875 0.96875q0.53125 0.375 1.296875 0.375q1.0625 0 3.09375 -0.734375l0.65625 5.953125q-2.6875 1.1562538 -6.078125 1.1562538q-2.078125 0 -3.75 -0.6875038q-1.65625 -0.703125 -2.4375 -1.8125q-0.78125 -1.109375 -1.078125 -3.0q-0.25 -1.34375 -0.25 -5.40625l0 -12.671875l-3.53125 0l0 -6.125l3.53125 0l0 -5.765623l7.71875 -4.484375l0 10.249998l5.25 0zm12.6796875 29.046875l-7.6875 0l0 -29.046875l7.140625 0l0 4.140625q1.828125 -2.9375 3.296875 -3.859375q1.46875 -0.9375 3.328125 -0.9375q2.625 0 5.046875 1.453125l-2.375 6.703125q-1.9375 -1.265625 -3.609375 -1.265625q-1.609375 0 -2.734375 0.890625q-1.125 0.890625 -1.765625 3.21875q-0.640625 2.328125 -0.640625 9.734375l0 8.96875zm14.433594 0l0 -40.09375l7.6875 0l0 40.09375l-7.6875 0z" fill-rule="nonzero"/><path fill="#000000" fill-opacity="0.0" d="m6.6767607 99.85022c2.9243698 -6.9753723 7.603423 -13.640083 13.691501 -18.776993" fill-rule="evenodd"/><path stroke="#000000" stroke-width="3.0" stroke-linejoin="round" stroke-linecap="butt" d="m6.6767607 99.85022c2.9243698 -6.9753723 7.603423 -13.640083 13.691501 -18.776993" fill-rule="evenodd"/><path fill="#000000" fill-opacity="0.0" d="m15.227642 107.683136c3.8468952 -7.0363235 6.652483 -14.668289 8.769014 -22.403755" fill-rule="evenodd"/><path stroke="#000000" stroke-width="3.0" stroke-linejoin="round" stroke-linecap="butt" d="m15.227642 107.683136c3.8468952 -7.0363235 6.652483 -14.668289 8.769014 -22.403755" fill-rule="evenodd"/><path fill="#000000" fill-opacity="0.0" d="m166.48311 85.69762c3.7603912 6.843292 5.3905945 14.704895 9.827026 21.180405" fill-rule="evenodd"/><path stroke="#000000" stroke-width="3.0" stroke-linejoin="round" stroke-linecap="butt" d="m166.48311 85.69762c3.7603912 6.843292 5.3905945 14.704895 9.827026 21.180405" fill-rule="evenodd"/><path fill="#000000" fill-opacity="0.0" d="m184.61942 99.07398c-4.2523804 -5.9604797 -7.7171326 -12.806061 -13.438309 -17.375328" fill-rule="evenodd"/><path stroke="#000000" stroke-width="3.0" stroke-linejoin="round" stroke-linecap="butt" d="m184.61942 99.07398c-4.2523804 -5.9604797 -7.7171326 -12.806061 -13.438309 -17.375328" fill-rule="evenodd"/><path fill="#000000" fill-opacity="0.0" d="m18.826115 16.678106l0 0c0 -7.8568068 6.3692017 -14.2260065 14.226006 -14.2260065l125.15428 0c3.7729797 0 7.3914185 1.498807 10.059311 4.166701c2.6678925 2.667894 4.1667023 6.2863336 4.1667023 10.059305l0 56.902313c0 7.8568115 -6.3692017 14.226006 -14.226013 14.226006l-125.15428 0c-7.856804 0 -14.226006 -6.369194 -14.226006 -14.226006z" fill-rule="evenodd"/><path stroke="#000000" stroke-width="4.0" stroke-linejoin="round" stroke-linecap="butt" d="m18.826115 16.678106l0 0c0 -7.8568068 6.3692017 -14.2260065 14.226006 -14.2260065l125.15428 0c3.7729797 0 7.3914185 1.498807 10.059311 4.166701c2.6678925 2.667894 4.1667023 6.2863336 4.1667023 10.059305l0 56.902313c0 7.8568115 -6.3692017 14.226006 -14.226013 14.226006l-125.15428 0c-7.856804 0 -14.226006 -6.369194 -14.226006 -14.226006z" fill-rule="evenodd"/></g></svg>