<svg version="1.1" viewBox="0.0 0.0 191.17060367454067 115.13123359580052" fill="none" stroke="none" stroke-linecap="square" stroke-miterlimit="10" xmlns:xlink="http://www.w3.org/1999/xlink" xmlns="http://www.w3.org/2000/svg"><clipPath id="p.0"><path d="m0 0l191.17061 0l0 115.13123l-191.17061 0l0 -115.13123z" clip-rule="nonzero"/></clipPath><g clip-path="url(#p.0)"><path fill="#000000" fill-opacity="0.0" d="m0 0l191.17061 0l0 115.13123l-191.17061 0z" fill-rule="evenodd"/><path fill="#434343" d="m2.612861 26.872349l0 0c0 -13.486932 10.933318 -24.42025 24.420248 -24.42025l136.7028 0c6.476654 0 12.688049 2.5728402 17.26773 7.152525c4.5796814 4.579685 7.152527 10.79107 7.152527 17.267723l0 61.26974c0 13.486931 -10.933319 24.420242 -24.420258 24.420242l-136.7028 0l0 0c-13.486931 0 -24.420248 -10.933311 -24.420248 -24.420242z" fill-rule="evenodd"/><path stroke="#000000" stroke-width="4.0" stroke-linejoin="round" stroke-linecap="butt" d="m2.612861 26.872349l0 0c0 -13.486932 10.933318 -24.42025 24.420248 -24.42025l136.7028 0c6.476654 0 12.688049 2.5728402 17.26773 7.152525c4.5796814 4.579685 7.152527 10.79107 7.152527 17.267723l0 61.26974c0 13.486931 -10.933319 24.420242 -24.420258 24.420242l-136.7028 0l0 0c-13.486931 0 -24.420248 -10.933311 -24.420248 -24.420242z" fill-rule="evenodd"/><path fill="#000000" fill-opacity="0.0" d="m18.826115 16.678106l0 0c0 -7.8568068 6.3692017 -14.2260065 14.226006 -14.2260065l125.15428 0c3.7729797 0 7.3914185 1.498807 10.059311 4.166701c2.6678925 2.667894 4.1667023 6.2863336 4.1667023 10.059305l0 56.902313c0 7.8568115 -6.3692017 14.226006 -14.226013 14.226006l-125.15428 0c-7.856804 0 -14.226006 -6.369194 -14.226006 -14.226006z" fill-rule="evenodd"/><path stroke="#000000" stroke-width="4.0" stroke-linejoin="round" stroke-linecap="butt" d="m18.826115 16.678106l0 0c0 -7.8568068 6.3692017 -14.2260065 14.226006 -14.2260065l125.15428 0c3.7729797 0 7.3914185 1.498807 10.059311 4.166701c2.6678925 2.667894 4.1667023 6.2863336 4.1667023 10.059305l0 56.902313c0 7.8568115 -6.3692017 14.226006 -14.226013 14.226006l-125.15428 0c-7.856804 0 -14.226006 -6.369194 -14.226006 -14.226006z" fill-rule="evenodd"/><path fill="#000000" fill-opacity="0.0" d="m6.6767607 99.85022c2.9243698 -6.9753723 7.603423 -13.640083 13.691501 -18.776993" fill-rule="evenodd"/><path stroke="#000000" stroke-width="3.0" stroke-linejoin="round" stroke-linecap="butt" d="m6.6767607 99.85022c2.9243698 -6.9753723 7.603423 -13.640083 13.691501 -18.776993" fill-rule="evenodd"/><path fill="#000000" fill-opacity="0.0" d="m15.227642 107.683136c3.8468952 -7.0363235 6.652483 -14.668289 8.769014 -22.403755" fill-rule="evenodd"/><path stroke="#000000" stroke-width="3.0" stroke-linejoin="round" stroke-linecap="butt" d="m15.227642 107.683136c3.8468952 -7.0363235 6.652483 -14.668289 8.769014 -22.403755" fill-rule="evenodd"/><path fill="#000000" fill-opacity="0.0" d="m166.48311 85.69762c3.7603912 6.843292 5.3905945 14.704895 9.827026 21.180405" fill-rule="evenodd"/><path stroke="#000000" stroke-width="3.0" stroke-linejoin="round" stroke-linecap="butt" d="m166.48311 85.69762c3.7603912 6.843292 5.3905945 14.704895 9.827026 21.180405" fill-rule="evenodd"/><path fill="#000000" fill-opacity="0.0" d="m184.61942 99.07398c-4.2523804 -5.9604797 -7.7171326 -12.806061 -13.438309 -17.375328" fill-rule="evenodd"/><path stroke="#000000" stroke-width="3.0" stroke-linejoin="round" stroke-linecap="butt" d="m184.61942 99.07398c-4.2523804 -5.9604797 -7.7171326 -12.806061 -13.438309 -17.375328" fill-rule="evenodd"/><path fill="#000000" fill-opacity="0.0" d="m62.122574 14.027159l156.50394 0l0 71.08661l-156.50394 0z" fill-rule="evenodd"/><path fill="#ffffff" d="m72.66945 54.049656l6.0 -0.578125q0.53125 3.015625 2.1875 4.4375q1.65625 1.40625 4.46875 1.40625q2.984375 0 4.484375 -1.25q1.515625 -1.265625 1.515625 -2.953125q0 -1.078125 -0.640625 -1.828125q-0.625 -0.765625 -2.21875 -1.328125q-1.078125 -0.375 -4.9375 -1.34375q-4.953125 -1.21875 -6.953125 -3.015625q-2.8125 -2.515625 -2.8125 -6.140625q0 -2.34375 1.328125 -4.375q1.328125 -2.03125 3.8125 -3.09375q2.484375 -1.0625 6.0 -1.0625q5.75 0 8.65625 2.53125q2.90625 2.515625 3.0625 6.71875l-6.171875 0.28125q-0.390625 -2.359375 -1.703125 -3.390625q-1.296875 -1.03125 -3.90625 -1.03125q-2.6875 0 -4.203125 1.109375q-0.96875 0.703125 -0.96875 1.890625q0 1.078125 0.90625 1.859375q1.171875 0.96875 5.671875 2.03125q4.5 1.0625 6.65625 2.203125q2.15625 1.140625 3.375 3.109375q1.21875 1.96875 1.21875 4.859375q0 2.625 -1.46875 4.921875q-1.453125 2.28125 -4.125 3.40625q-2.65625 1.1093788 -6.640625 1.1093788q-5.78125 0 -8.890625 -2.6718788q-3.109375 -2.6875 -3.703125 -7.8125zm35.795135 -20.59375l0 11.21875q2.828125 -3.3125 6.765625 -3.3125q2.03125 0 3.65625 0.75q1.625 0.75 2.4375 1.921875q0.828125 1.171875 1.125 2.59375q0.3125 1.40625 0.3125 4.390625l0 12.96875l-5.859375 0l0 -11.6875q0 -3.46875 -0.34375 -4.40625q-0.328125 -0.9375 -1.171875 -1.484375q-0.84375 -0.5625 -2.109375 -0.5625q-1.453125 0 -2.609375 0.71875q-1.140625 0.703125 -1.671875 2.125q-0.53125 1.421875 -0.53125 4.21875l0 11.078125l-5.84375 0l0 -30.53125l5.84375 0zm20.228012 5.40625l0 -5.40625l5.859375 0l0 5.40625l-5.859375 0zm0 25.125l0 -22.125l5.859375 0l0 22.125l-5.859375 0zm9.288773 -22.125l3.25 0l0 -1.65625q0 -2.796875 0.59375 -4.171875q0.59375 -1.375 2.1875 -2.234375q1.59375 -0.875 4.03125 -0.875q2.5 0 4.890625 0.75l-0.796875 4.09375q-1.390625 -0.34375 -2.6875 -0.34375q-1.265625 0 -1.8125 0.59375q-0.546875 0.59375 -0.546875 2.28125l0 1.5625l4.359375 0l0 4.609375l-4.359375 0l0 17.515625l-5.859375 0l0 -17.515625l-3.25 0l0 -4.609375zm26.90799 0l0 4.671875l-4.0 0l0 8.90625q0 2.71875 0.109375 3.171875q0.125 0.4375 0.53125 0.734375q0.40625 0.28125 0.984375 0.28125q0.8125 0 2.359375 -0.5625l0.5 4.546875q-2.046875 0.8750038 -4.625 0.8750038q-1.578125 0 -2.859375 -0.5312538q-1.265625 -0.53125 -1.859375 -1.375q-0.59375 -0.84375 -0.828125 -2.28125q-0.1875 -1.015625 -0.1875 -4.125l0 -9.640625l-2.6875 0l0 -4.671875l2.6875 0l0 -4.390625l5.875 -3.421875l0 7.8125l4.0 0z" fill-rule="nonzero"/><path fill="#000000" fill-opacity="0.0" d="m34.8667 63.728443l0 -8.333435l-10.643091 0l23.165354 -25.997274l23.16536 25.997274l-10.643093 0l0 8.333435z" fill-rule="evenodd"/><path stroke="#ffffff" stroke-width="3.0" stroke-linejoin="round" stroke-linecap="butt" d="m34.8667 63.728443l0 -8.333435l-10.643091 0l23.165354 -25.997274l23.16536 25.997274l-10.643093 0l0 8.333435z" fill-rule="evenodd"/></g></svg>